<mxfile host="www.draw.io" modified="2019-11-05T09:08:04.539Z" agent="Mozilla/5.0 (Windows NT 6.1; Win64; x64) AppleWebKit/537.36 (KHTML, like Gecko) Chrome/77.0.3865.90 Safari/537.36" etag="ITp6bpcok6UxQlsjaeLo" version="12.1.8" type="github" pages="1">
  <diagram id="yZJRV0GO1RGtg8hs4W5D" name="Page-1">
    <mxGraphModel dx="2062" dy="760" grid="1" gridSize="10" guides="1" tooltips="1" connect="1" arrows="1" fold="1" page="1" pageScale="1" pageWidth="826" pageHeight="1169" math="0" shadow="0">
      <root>
        <mxCell id="0"/>
        <mxCell id="1" parent="0"/>
        <mxCell id="P6lC5pPqpMT8iZ2sA-Gk-1" value="任务输入" style="rounded=1;whiteSpace=wrap;html=1;fillColor=#dae8fc;strokeColor=#6c8ebf;" parent="1" vertex="1">
          <mxGeometry x="260" y="190" width="120" height="60" as="geometry"/>
        </mxCell>
        <mxCell id="P6lC5pPqpMT8iZ2sA-Gk-2" value="任务规划" style="rounded=1;whiteSpace=wrap;html=1;fillColor=#dae8fc;strokeColor=#6c8ebf;" parent="1" vertex="1">
          <mxGeometry x="260" y="460" width="120" height="60" as="geometry"/>
        </mxCell>
        <mxCell id="P6lC5pPqpMT8iZ2sA-Gk-3" value="下载" style="rounded=1;whiteSpace=wrap;html=1;fillColor=#ffe6cc;strokeColor=#d79b00;" parent="1" vertex="1">
          <mxGeometry x="450" y="190" width="120" height="60" as="geometry"/>
        </mxCell>
        <mxCell id="P6lC5pPqpMT8iZ2sA-Gk-4" value="上传" style="rounded=1;whiteSpace=wrap;html=1;fillColor=#d5e8d4;strokeColor=#82b366;" parent="1" vertex="1">
          <mxGeometry x="640" y="190" width="120" height="60" as="geometry"/>
        </mxCell>
        <mxCell id="P6lC5pPqpMT8iZ2sA-Gk-5" value="任务提交" style="rounded=1;whiteSpace=wrap;html=1;fillColor=#dae8fc;strokeColor=#6c8ebf;" parent="1" vertex="1">
          <mxGeometry x="260" y="280" width="120" height="60" as="geometry"/>
        </mxCell>
        <mxCell id="P6lC5pPqpMT8iZ2sA-Gk-6" value="下载引擎" style="rounded=1;whiteSpace=wrap;html=1;fillColor=#ffe6cc;strokeColor=#d79b00;" parent="1" vertex="1">
          <mxGeometry x="450" y="280" width="120" height="60" as="geometry"/>
        </mxCell>
        <mxCell id="P6lC5pPqpMT8iZ2sA-Gk-7" value="上传引擎" style="rounded=1;whiteSpace=wrap;html=1;fillColor=#d5e8d4;strokeColor=#82b366;" parent="1" vertex="1">
          <mxGeometry x="640" y="280" width="120" height="60" as="geometry"/>
        </mxCell>
        <mxCell id="P6lC5pPqpMT8iZ2sA-Gk-8" value="业务配置解析" style="rounded=1;whiteSpace=wrap;html=1;fillColor=#ffe6cc;strokeColor=#d79b00;" parent="1" vertex="1">
          <mxGeometry x="450" y="370" width="120" height="60" as="geometry"/>
        </mxCell>
        <mxCell id="P6lC5pPqpMT8iZ2sA-Gk-11" style="edgeStyle=orthogonalEdgeStyle;rounded=0;orthogonalLoop=1;jettySize=auto;html=1;entryX=0;entryY=0.5;entryDx=0;entryDy=0;" parent="1" source="P6lC5pPqpMT8iZ2sA-Gk-9" target="P6lC5pPqpMT8iZ2sA-Gk-10" edge="1">
          <mxGeometry relative="1" as="geometry"/>
        </mxCell>
        <mxCell id="P6lC5pPqpMT8iZ2sA-Gk-9" value="子任务拆分" style="rounded=1;whiteSpace=wrap;html=1;fillColor=#d5e8d4;strokeColor=#82b366;" parent="1" vertex="1">
          <mxGeometry x="640" y="460" width="120" height="60" as="geometry"/>
        </mxCell>
        <mxCell id="P6lC5pPqpMT8iZ2sA-Gk-18" style="edgeStyle=orthogonalEdgeStyle;rounded=0;orthogonalLoop=1;jettySize=auto;html=1;entryX=0;entryY=0.5;entryDx=0;entryDy=0;" parent="1" source="P6lC5pPqpMT8iZ2sA-Gk-10" target="P6lC5pPqpMT8iZ2sA-Gk-16" edge="1">
          <mxGeometry relative="1" as="geometry"/>
        </mxCell>
        <mxCell id="P6lC5pPqpMT8iZ2sA-Gk-10" value="任务分片" style="rounded=1;whiteSpace=wrap;html=1;fillColor=#d5e8d4;strokeColor=#82b366;" parent="1" vertex="1">
          <mxGeometry x="830" y="460" width="120" height="60" as="geometry"/>
        </mxCell>
        <mxCell id="P6lC5pPqpMT8iZ2sA-Gk-12" value="任务解析" style="rounded=1;whiteSpace=wrap;html=1;fillColor=#dae8fc;strokeColor=#6c8ebf;" parent="1" vertex="1">
          <mxGeometry x="260" y="370" width="120" height="60" as="geometry"/>
        </mxCell>
        <mxCell id="P6lC5pPqpMT8iZ2sA-Gk-13" value="业务解析" style="rounded=1;whiteSpace=wrap;html=1;fillColor=#d5e8d4;strokeColor=#82b366;" parent="1" vertex="1">
          <mxGeometry x="640" y="370" width="120" height="60" as="geometry"/>
        </mxCell>
        <mxCell id="P6lC5pPqpMT8iZ2sA-Gk-14" value="下载流程抽象" style="rounded=1;whiteSpace=wrap;html=1;fillColor=#ffe6cc;strokeColor=#d79b00;" parent="1" vertex="1">
          <mxGeometry x="450" y="460" width="120" height="60" as="geometry"/>
        </mxCell>
        <mxCell id="P6lC5pPqpMT8iZ2sA-Gk-16" value="数据聚合" style="rounded=1;whiteSpace=wrap;html=1;fillColor=#d5e8d4;strokeColor=#82b366;" parent="1" vertex="1">
          <mxGeometry x="1020" y="460" width="120" height="60" as="geometry"/>
        </mxCell>
        <mxCell id="P6lC5pPqpMT8iZ2sA-Gk-19" value="任务输出" style="rounded=1;whiteSpace=wrap;html=1;fillColor=#dae8fc;strokeColor=#6c8ebf;" parent="1" vertex="1">
          <mxGeometry x="260" y="640" width="120" height="60" as="geometry"/>
        </mxCell>
        <mxCell id="P6lC5pPqpMT8iZ2sA-Gk-20" value="&lt;span style=&quot;font-weight: normal&quot;&gt;下载文件&lt;/span&gt;" style="rounded=1;whiteSpace=wrap;html=1;fillColor=#ffe6cc;strokeColor=#d79b00;fontStyle=1" parent="1" vertex="1">
          <mxGeometry x="450" y="640" width="120" height="60" as="geometry"/>
        </mxCell>
        <mxCell id="P6lC5pPqpMT8iZ2sA-Gk-21" value="&lt;span style=&quot;font-weight: normal&quot;&gt;上传结果文件&lt;/span&gt;" style="rounded=1;whiteSpace=wrap;html=1;fillColor=#d5e8d4;strokeColor=#82b366;fontStyle=1" parent="1" vertex="1">
          <mxGeometry x="640" y="640" width="120" height="60" as="geometry"/>
        </mxCell>
        <mxCell id="P6lC5pPqpMT8iZ2sA-Gk-22" value="任务执行" style="rounded=1;whiteSpace=wrap;html=1;fillColor=#dae8fc;strokeColor=#6c8ebf;" parent="1" vertex="1">
          <mxGeometry x="260" y="550" width="120" height="60" as="geometry"/>
        </mxCell>
        <mxCell id="P6lC5pPqpMT8iZ2sA-Gk-23" value="&lt;span style=&quot;font-weight: normal&quot;&gt;下载流程自动化&lt;/span&gt;" style="rounded=1;whiteSpace=wrap;html=1;fillColor=#ffe6cc;strokeColor=#d79b00;fontStyle=1" parent="1" vertex="1">
          <mxGeometry x="450" y="550" width="120" height="60" as="geometry"/>
        </mxCell>
        <mxCell id="P6lC5pPqpMT8iZ2sA-Gk-24" value="&lt;span style=&quot;font-weight: normal&quot;&gt;上传流程自动化&lt;/span&gt;" style="rounded=1;whiteSpace=wrap;html=1;fillColor=#d5e8d4;strokeColor=#82b366;fontStyle=1" parent="1" vertex="1">
          <mxGeometry x="640" y="550" width="120" height="60" as="geometry"/>
        </mxCell>
        <mxCell id="juhhppIBEXEbaZW28vqw-14" style="edgeStyle=orthogonalEdgeStyle;rounded=0;orthogonalLoop=1;jettySize=auto;html=1;entryX=0;entryY=0.5;entryDx=0;entryDy=0;" edge="1" parent="1" source="juhhppIBEXEbaZW28vqw-1" target="juhhppIBEXEbaZW28vqw-13">
          <mxGeometry relative="1" as="geometry"/>
        </mxCell>
        <mxCell id="juhhppIBEXEbaZW28vqw-1" value="上传输入" style="rounded=1;whiteSpace=wrap;html=1;fillColor=#dae8fc;strokeColor=#6c8ebf;" vertex="1" parent="1">
          <mxGeometry x="80" y="1340" width="120" height="60" as="geometry"/>
        </mxCell>
        <mxCell id="juhhppIBEXEbaZW28vqw-2" value="sheetname解析" style="rounded=1;whiteSpace=wrap;html=1;fillColor=#dae8fc;strokeColor=#6c8ebf;" vertex="1" parent="1">
          <mxGeometry x="530" y="1000" width="120" height="60" as="geometry"/>
        </mxCell>
        <mxCell id="juhhppIBEXEbaZW28vqw-7" style="edgeStyle=orthogonalEdgeStyle;rounded=0;orthogonalLoop=1;jettySize=auto;html=1;entryX=0;entryY=0.5;entryDx=0;entryDy=0;exitX=1;exitY=0.5;exitDx=0;exitDy=0;" edge="1" parent="1" source="juhhppIBEXEbaZW28vqw-23" target="juhhppIBEXEbaZW28vqw-6">
          <mxGeometry relative="1" as="geometry"/>
        </mxCell>
        <mxCell id="juhhppIBEXEbaZW28vqw-4" value="任务规划" style="rounded=1;whiteSpace=wrap;html=1;fillColor=#dae8fc;strokeColor=#6c8ebf;" vertex="1" parent="1">
          <mxGeometry x="760" y="1210" width="120" height="60" as="geometry"/>
        </mxCell>
        <mxCell id="juhhppIBEXEbaZW28vqw-6" value="任务提交" style="rounded=1;whiteSpace=wrap;html=1;fillColor=#dae8fc;strokeColor=#6c8ebf;" vertex="1" parent="1">
          <mxGeometry x="970" y="1480" width="120" height="60" as="geometry"/>
        </mxCell>
        <mxCell id="juhhppIBEXEbaZW28vqw-10" value="&lt;span style=&quot;font-weight: normal&quot;&gt;sheetName配置&lt;/span&gt;" style="rounded=1;whiteSpace=wrap;html=1;fillColor=#d5e8d4;strokeColor=#82b366;fontStyle=1" vertex="1" parent="1">
          <mxGeometry x="706" y="1000" width="120" height="60" as="geometry"/>
        </mxCell>
        <mxCell id="juhhppIBEXEbaZW28vqw-11" value="&lt;span style=&quot;font-weight: normal&quot;&gt;title配置&lt;/span&gt;" style="rounded=1;whiteSpace=wrap;html=1;fillColor=#d5e8d4;strokeColor=#82b366;fontStyle=1" vertex="1" parent="1">
          <mxGeometry x="970" y="1210" width="120" height="60" as="geometry"/>
        </mxCell>
        <mxCell id="juhhppIBEXEbaZW28vqw-22" style="edgeStyle=orthogonalEdgeStyle;rounded=0;orthogonalLoop=1;jettySize=auto;html=1;entryX=0;entryY=0.5;entryDx=0;entryDy=0;" edge="1" parent="1" source="juhhppIBEXEbaZW28vqw-12" target="juhhppIBEXEbaZW28vqw-4">
          <mxGeometry relative="1" as="geometry"/>
        </mxCell>
        <mxCell id="juhhppIBEXEbaZW28vqw-24" style="edgeStyle=orthogonalEdgeStyle;rounded=0;orthogonalLoop=1;jettySize=auto;html=1;entryX=0;entryY=0.5;entryDx=0;entryDy=0;" edge="1" parent="1" source="juhhppIBEXEbaZW28vqw-12" target="juhhppIBEXEbaZW28vqw-23">
          <mxGeometry relative="1" as="geometry"/>
        </mxCell>
        <mxCell id="juhhppIBEXEbaZW28vqw-26" style="edgeStyle=orthogonalEdgeStyle;rounded=0;orthogonalLoop=1;jettySize=auto;html=1;entryX=0;entryY=0.5;entryDx=0;entryDy=0;" edge="1" parent="1" source="juhhppIBEXEbaZW28vqw-12" target="juhhppIBEXEbaZW28vqw-25">
          <mxGeometry relative="1" as="geometry"/>
        </mxCell>
        <mxCell id="juhhppIBEXEbaZW28vqw-12" value="&lt;span style=&quot;font-weight: normal&quot;&gt;任务规划器&lt;/span&gt;" style="rounded=1;whiteSpace=wrap;html=1;fillColor=#ffe6cc;strokeColor=#d79b00;fontStyle=1" vertex="1" parent="1">
          <mxGeometry x="530" y="1340" width="120" height="60" as="geometry"/>
        </mxCell>
        <mxCell id="juhhppIBEXEbaZW28vqw-19" style="edgeStyle=orthogonalEdgeStyle;rounded=0;orthogonalLoop=1;jettySize=auto;html=1;entryX=0;entryY=0.5;entryDx=0;entryDy=0;" edge="1" parent="1" source="juhhppIBEXEbaZW28vqw-13" target="juhhppIBEXEbaZW28vqw-15">
          <mxGeometry relative="1" as="geometry">
            <Array as="points">
              <mxPoint x="470" y="1350"/>
              <mxPoint x="470" y="1139"/>
            </Array>
          </mxGeometry>
        </mxCell>
        <mxCell id="juhhppIBEXEbaZW28vqw-21" style="edgeStyle=orthogonalEdgeStyle;rounded=0;orthogonalLoop=1;jettySize=auto;html=1;entryX=0;entryY=0.5;entryDx=0;entryDy=0;" edge="1" parent="1" source="juhhppIBEXEbaZW28vqw-13" target="juhhppIBEXEbaZW28vqw-12">
          <mxGeometry relative="1" as="geometry">
            <mxPoint x="530" y="1375" as="targetPoint"/>
          </mxGeometry>
        </mxCell>
        <mxCell id="juhhppIBEXEbaZW28vqw-13" value="&lt;span style=&quot;font-weight: normal&quot;&gt;处理器&lt;/span&gt;" style="rounded=1;whiteSpace=wrap;html=1;fillColor=#f8cecc;strokeColor=#b85450;fontStyle=1" vertex="1" parent="1">
          <mxGeometry x="290" y="1340" width="120" height="60" as="geometry"/>
        </mxCell>
        <mxCell id="juhhppIBEXEbaZW28vqw-18" style="edgeStyle=orthogonalEdgeStyle;rounded=0;orthogonalLoop=1;jettySize=auto;html=1;" edge="1" parent="1" source="juhhppIBEXEbaZW28vqw-15" target="juhhppIBEXEbaZW28vqw-10">
          <mxGeometry relative="1" as="geometry"/>
        </mxCell>
        <mxCell id="juhhppIBEXEbaZW28vqw-20" style="edgeStyle=orthogonalEdgeStyle;rounded=0;orthogonalLoop=1;jettySize=auto;html=1;entryX=0.5;entryY=1;entryDx=0;entryDy=0;" edge="1" parent="1" source="juhhppIBEXEbaZW28vqw-15" target="juhhppIBEXEbaZW28vqw-2">
          <mxGeometry relative="1" as="geometry"/>
        </mxCell>
        <mxCell id="juhhppIBEXEbaZW28vqw-15" value="&lt;span style=&quot;font-weight: normal&quot;&gt;解析器&lt;/span&gt;" style="rounded=1;whiteSpace=wrap;html=1;fillColor=#ffe6cc;strokeColor=#d79b00;fontStyle=1" vertex="1" parent="1">
          <mxGeometry x="530" y="1109" width="120" height="60" as="geometry"/>
        </mxCell>
        <mxCell id="juhhppIBEXEbaZW28vqw-23" value="&lt;span style=&quot;font-weight: normal&quot;&gt;任务记录器&lt;/span&gt;" style="rounded=1;whiteSpace=wrap;html=1;fillColor=#ffe6cc;strokeColor=#d79b00;fontStyle=1" vertex="1" parent="1">
          <mxGeometry x="760" y="1480" width="120" height="60" as="geometry"/>
        </mxCell>
        <mxCell id="juhhppIBEXEbaZW28vqw-31" style="edgeStyle=orthogonalEdgeStyle;rounded=0;orthogonalLoop=1;jettySize=auto;html=1;entryX=0;entryY=0.5;entryDx=0;entryDy=0;" edge="1" parent="1" source="juhhppIBEXEbaZW28vqw-25" target="juhhppIBEXEbaZW28vqw-30">
          <mxGeometry relative="1" as="geometry"/>
        </mxCell>
        <mxCell id="juhhppIBEXEbaZW28vqw-25" value="&lt;span style=&quot;font-weight: normal&quot;&gt;数据读取器&lt;br&gt;（流式）&lt;br&gt;&lt;/span&gt;" style="rounded=1;whiteSpace=wrap;html=1;fillColor=#ffe6cc;strokeColor=#d79b00;fontStyle=1" vertex="1" parent="1">
          <mxGeometry x="760" y="1340" width="120" height="60" as="geometry"/>
        </mxCell>
        <mxCell id="juhhppIBEXEbaZW28vqw-29" style="edgeStyle=orthogonalEdgeStyle;rounded=0;orthogonalLoop=1;jettySize=auto;html=1;entryX=1;entryY=0.5;entryDx=0;entryDy=0;" edge="1" parent="1" source="juhhppIBEXEbaZW28vqw-28" target="juhhppIBEXEbaZW28vqw-6">
          <mxGeometry relative="1" as="geometry"/>
        </mxCell>
        <mxCell id="juhhppIBEXEbaZW28vqw-34" style="edgeStyle=orthogonalEdgeStyle;rounded=0;orthogonalLoop=1;jettySize=auto;html=1;entryX=0;entryY=0.5;entryDx=0;entryDy=0;" edge="1" parent="1" source="juhhppIBEXEbaZW28vqw-28" target="juhhppIBEXEbaZW28vqw-33">
          <mxGeometry relative="1" as="geometry"/>
        </mxCell>
        <mxCell id="juhhppIBEXEbaZW28vqw-36" style="edgeStyle=orthogonalEdgeStyle;rounded=0;orthogonalLoop=1;jettySize=auto;html=1;entryX=0.5;entryY=1;entryDx=0;entryDy=0;" edge="1" parent="1" source="juhhppIBEXEbaZW28vqw-28" target="juhhppIBEXEbaZW28vqw-35">
          <mxGeometry relative="1" as="geometry"/>
        </mxCell>
        <mxCell id="juhhppIBEXEbaZW28vqw-39" style="edgeStyle=orthogonalEdgeStyle;rounded=0;orthogonalLoop=1;jettySize=auto;html=1;entryX=0.5;entryY=0;entryDx=0;entryDy=0;" edge="1" parent="1" source="juhhppIBEXEbaZW28vqw-28" target="juhhppIBEXEbaZW28vqw-37">
          <mxGeometry relative="1" as="geometry"/>
        </mxCell>
        <mxCell id="juhhppIBEXEbaZW28vqw-28" value="&lt;span style=&quot;font-weight: normal&quot;&gt;异步分片任务&lt;br&gt;处理器&lt;br&gt;&lt;/span&gt;" style="rounded=1;whiteSpace=wrap;html=1;fillColor=#f8cecc;strokeColor=#b85450;fontStyle=1" vertex="1" parent="1">
          <mxGeometry x="1160" y="1480" width="120" height="60" as="geometry"/>
        </mxCell>
        <mxCell id="juhhppIBEXEbaZW28vqw-32" style="edgeStyle=orthogonalEdgeStyle;rounded=0;orthogonalLoop=1;jettySize=auto;html=1;entryX=0.5;entryY=1;entryDx=0;entryDy=0;" edge="1" parent="1" source="juhhppIBEXEbaZW28vqw-30" target="juhhppIBEXEbaZW28vqw-11">
          <mxGeometry relative="1" as="geometry"/>
        </mxCell>
        <mxCell id="juhhppIBEXEbaZW28vqw-30" value="title解析" style="rounded=1;whiteSpace=wrap;html=1;fillColor=#dae8fc;strokeColor=#6c8ebf;" vertex="1" parent="1">
          <mxGeometry x="970" y="1340" width="120" height="60" as="geometry"/>
        </mxCell>
        <mxCell id="juhhppIBEXEbaZW28vqw-33" value="&lt;span style=&quot;font-weight: normal&quot;&gt;数据适配器&lt;/span&gt;" style="rounded=1;whiteSpace=wrap;html=1;fillColor=#ffe6cc;strokeColor=#d79b00;fontStyle=1" vertex="1" parent="1">
          <mxGeometry x="1350" y="1480" width="120" height="60" as="geometry"/>
        </mxCell>
        <mxCell id="juhhppIBEXEbaZW28vqw-35" value="&lt;span style=&quot;font-weight: normal&quot;&gt;数据校验器&lt;/span&gt;" style="rounded=1;whiteSpace=wrap;html=1;fillColor=#ffe6cc;strokeColor=#d79b00;fontStyle=1" vertex="1" parent="1">
          <mxGeometry x="1160" y="1340" width="120" height="60" as="geometry"/>
        </mxCell>
        <mxCell id="juhhppIBEXEbaZW28vqw-41" style="edgeStyle=orthogonalEdgeStyle;rounded=0;orthogonalLoop=1;jettySize=auto;html=1;entryX=1;entryY=0.5;entryDx=0;entryDy=0;" edge="1" parent="1" source="juhhppIBEXEbaZW28vqw-37" target="juhhppIBEXEbaZW28vqw-40">
          <mxGeometry relative="1" as="geometry"/>
        </mxCell>
        <mxCell id="juhhppIBEXEbaZW28vqw-37" value="&lt;span style=&quot;font-weight: normal&quot;&gt;服务访问器&lt;/span&gt;" style="rounded=1;whiteSpace=wrap;html=1;fillColor=#ffe6cc;strokeColor=#d79b00;fontStyle=1" vertex="1" parent="1">
          <mxGeometry x="1160" y="1620" width="120" height="60" as="geometry"/>
        </mxCell>
        <mxCell id="juhhppIBEXEbaZW28vqw-40" value="分片结果数据" style="rounded=1;whiteSpace=wrap;html=1;fillColor=#dae8fc;strokeColor=#6c8ebf;" vertex="1" parent="1">
          <mxGeometry x="970" y="1620" width="120" height="60" as="geometry"/>
        </mxCell>
        <mxCell id="juhhppIBEXEbaZW28vqw-43" style="edgeStyle=orthogonalEdgeStyle;rounded=0;orthogonalLoop=1;jettySize=auto;html=1;entryX=0;entryY=0.5;entryDx=0;entryDy=0;" edge="1" parent="1" source="juhhppIBEXEbaZW28vqw-42" target="juhhppIBEXEbaZW28vqw-40">
          <mxGeometry relative="1" as="geometry"/>
        </mxCell>
        <mxCell id="juhhppIBEXEbaZW28vqw-45" style="edgeStyle=orthogonalEdgeStyle;rounded=0;orthogonalLoop=1;jettySize=auto;html=1;entryX=1;entryY=0.5;entryDx=0;entryDy=0;" edge="1" parent="1" source="juhhppIBEXEbaZW28vqw-42" target="juhhppIBEXEbaZW28vqw-44">
          <mxGeometry relative="1" as="geometry"/>
        </mxCell>
        <mxCell id="juhhppIBEXEbaZW28vqw-42" value="&lt;span style=&quot;font-weight: normal&quot;&gt;异步任务&lt;br&gt;聚合处理器&lt;br&gt;&lt;/span&gt;" style="rounded=1;whiteSpace=wrap;html=1;fillColor=#f8cecc;strokeColor=#b85450;fontStyle=1" vertex="1" parent="1">
          <mxGeometry x="760" y="1620" width="120" height="60" as="geometry"/>
        </mxCell>
        <mxCell id="juhhppIBEXEbaZW28vqw-44" value="输出文件" style="rounded=1;whiteSpace=wrap;html=1;fillColor=#dae8fc;strokeColor=#6c8ebf;" vertex="1" parent="1">
          <mxGeometry x="530" y="1620" width="120" height="60" as="geometry"/>
        </mxCell>
        <mxCell id="juhhppIBEXEbaZW28vqw-57" style="edgeStyle=orthogonalEdgeStyle;rounded=0;orthogonalLoop=1;jettySize=auto;html=1;entryX=0;entryY=0.5;entryDx=0;entryDy=0;" edge="1" parent="1" source="juhhppIBEXEbaZW28vqw-46" target="juhhppIBEXEbaZW28vqw-50">
          <mxGeometry relative="1" as="geometry"/>
        </mxCell>
        <mxCell id="juhhppIBEXEbaZW28vqw-46" value="下载输入" style="rounded=1;whiteSpace=wrap;html=1;fillColor=#dae8fc;strokeColor=#6c8ebf;" vertex="1" parent="1">
          <mxGeometry x="90" y="2180" width="120" height="60" as="geometry"/>
        </mxCell>
        <mxCell id="juhhppIBEXEbaZW28vqw-47" value="&lt;span style=&quot;font-weight: normal&quot;&gt;业务配置&lt;/span&gt;" style="rounded=1;whiteSpace=wrap;html=1;fillColor=#d5e8d4;strokeColor=#82b366;fontStyle=1" vertex="1" parent="1">
          <mxGeometry x="500" y="1910" width="120" height="60" as="geometry"/>
        </mxCell>
        <mxCell id="juhhppIBEXEbaZW28vqw-48" value="&lt;span style=&quot;font-weight: normal&quot;&gt;连接数据源配置&lt;/span&gt;" style="rounded=1;whiteSpace=wrap;html=1;fillColor=#d5e8d4;strokeColor=#82b366;fontStyle=1" vertex="1" parent="1">
          <mxGeometry x="1310" y="2180" width="120" height="60" as="geometry"/>
        </mxCell>
        <mxCell id="juhhppIBEXEbaZW28vqw-49" value="&lt;span style=&quot;font-weight: normal&quot;&gt;title数据源配置&lt;/span&gt;" style="rounded=1;whiteSpace=wrap;html=1;fillColor=#d5e8d4;strokeColor=#82b366;fontStyle=1" vertex="1" parent="1">
          <mxGeometry x="910" y="2050" width="120" height="60" as="geometry"/>
        </mxCell>
        <mxCell id="juhhppIBEXEbaZW28vqw-58" style="edgeStyle=orthogonalEdgeStyle;rounded=0;orthogonalLoop=1;jettySize=auto;html=1;entryX=0.5;entryY=1;entryDx=0;entryDy=0;" edge="1" parent="1" target="juhhppIBEXEbaZW28vqw-56">
          <mxGeometry relative="1" as="geometry">
            <mxPoint x="560" y="2180" as="sourcePoint"/>
          </mxGeometry>
        </mxCell>
        <mxCell id="juhhppIBEXEbaZW28vqw-60" style="edgeStyle=orthogonalEdgeStyle;rounded=0;orthogonalLoop=1;jettySize=auto;html=1;entryX=0;entryY=0.5;entryDx=0;entryDy=0;" edge="1" parent="1" source="juhhppIBEXEbaZW28vqw-50" target="juhhppIBEXEbaZW28vqw-51">
          <mxGeometry relative="1" as="geometry"/>
        </mxCell>
        <mxCell id="juhhppIBEXEbaZW28vqw-76" style="edgeStyle=orthogonalEdgeStyle;rounded=0;orthogonalLoop=1;jettySize=auto;html=1;entryX=0.5;entryY=0;entryDx=0;entryDy=0;" edge="1" parent="1" source="juhhppIBEXEbaZW28vqw-50" target="juhhppIBEXEbaZW28vqw-75">
          <mxGeometry relative="1" as="geometry"/>
        </mxCell>
        <mxCell id="juhhppIBEXEbaZW28vqw-83" style="edgeStyle=orthogonalEdgeStyle;rounded=0;orthogonalLoop=1;jettySize=auto;html=1;entryX=0.5;entryY=1;entryDx=0;entryDy=0;" edge="1" parent="1" source="juhhppIBEXEbaZW28vqw-50" target="juhhppIBEXEbaZW28vqw-73">
          <mxGeometry relative="1" as="geometry"/>
        </mxCell>
        <mxCell id="juhhppIBEXEbaZW28vqw-50" value="异步处理器" style="rounded=1;whiteSpace=wrap;html=1;fillColor=#f8cecc;strokeColor=#b85450;" vertex="1" parent="1">
          <mxGeometry x="290" y="2180" width="120" height="60" as="geometry"/>
        </mxCell>
        <mxCell id="juhhppIBEXEbaZW28vqw-61" style="edgeStyle=orthogonalEdgeStyle;rounded=0;orthogonalLoop=1;jettySize=auto;html=1;entryX=0;entryY=0.5;entryDx=0;entryDy=0;" edge="1" parent="1" source="juhhppIBEXEbaZW28vqw-51" target="juhhppIBEXEbaZW28vqw-55">
          <mxGeometry relative="1" as="geometry"/>
        </mxCell>
        <mxCell id="juhhppIBEXEbaZW28vqw-51" value="&lt;span style=&quot;font-weight: 400&quot;&gt;业务处理器&lt;/span&gt;" style="rounded=1;whiteSpace=wrap;html=1;fillColor=#ffe6cc;strokeColor=#d79b00;fontStyle=1" vertex="1" parent="1">
          <mxGeometry x="500" y="2180" width="120" height="60" as="geometry"/>
        </mxCell>
        <mxCell id="juhhppIBEXEbaZW28vqw-65" style="edgeStyle=orthogonalEdgeStyle;rounded=0;orthogonalLoop=1;jettySize=auto;html=1;entryX=0;entryY=0.5;entryDx=0;entryDy=0;" edge="1" parent="1" source="juhhppIBEXEbaZW28vqw-53" target="juhhppIBEXEbaZW28vqw-64">
          <mxGeometry relative="1" as="geometry"/>
        </mxCell>
        <mxCell id="juhhppIBEXEbaZW28vqw-69" style="edgeStyle=orthogonalEdgeStyle;rounded=0;orthogonalLoop=1;jettySize=auto;html=1;entryX=0;entryY=0.5;entryDx=0;entryDy=0;" edge="1" parent="1" source="juhhppIBEXEbaZW28vqw-53" target="juhhppIBEXEbaZW28vqw-68">
          <mxGeometry relative="1" as="geometry"/>
        </mxCell>
        <mxCell id="juhhppIBEXEbaZW28vqw-53" value="&lt;span style=&quot;font-weight: 400&quot;&gt;数据访问器&lt;/span&gt;" style="rounded=1;whiteSpace=wrap;html=1;fillColor=#ffe6cc;strokeColor=#d79b00;fontStyle=1" vertex="1" parent="1">
          <mxGeometry x="910" y="2180" width="120" height="60" as="geometry"/>
        </mxCell>
        <mxCell id="juhhppIBEXEbaZW28vqw-54" value="&lt;span style=&quot;font-weight: 400&quot;&gt;数据转换器&lt;/span&gt;" style="rounded=1;whiteSpace=wrap;html=1;fillColor=#ffe6cc;strokeColor=#d79b00;fontStyle=1" vertex="1" parent="1">
          <mxGeometry x="910" y="2308" width="120" height="60" as="geometry"/>
        </mxCell>
        <mxCell id="juhhppIBEXEbaZW28vqw-62" style="edgeStyle=orthogonalEdgeStyle;rounded=0;orthogonalLoop=1;jettySize=auto;html=1;entryX=0;entryY=0.5;entryDx=0;entryDy=0;" edge="1" parent="1" source="juhhppIBEXEbaZW28vqw-55" target="juhhppIBEXEbaZW28vqw-53">
          <mxGeometry relative="1" as="geometry"/>
        </mxCell>
        <mxCell id="juhhppIBEXEbaZW28vqw-63" style="edgeStyle=orthogonalEdgeStyle;rounded=0;orthogonalLoop=1;jettySize=auto;html=1;entryX=0;entryY=0.5;entryDx=0;entryDy=0;" edge="1" parent="1" source="juhhppIBEXEbaZW28vqw-55" target="juhhppIBEXEbaZW28vqw-54">
          <mxGeometry relative="1" as="geometry"/>
        </mxCell>
        <mxCell id="juhhppIBEXEbaZW28vqw-66" style="edgeStyle=orthogonalEdgeStyle;rounded=0;orthogonalLoop=1;jettySize=auto;html=1;" edge="1" parent="1" target="juhhppIBEXEbaZW28vqw-49">
          <mxGeometry relative="1" as="geometry">
            <mxPoint x="970" y="2180" as="sourcePoint"/>
          </mxGeometry>
        </mxCell>
        <mxCell id="juhhppIBEXEbaZW28vqw-72" style="edgeStyle=orthogonalEdgeStyle;rounded=0;orthogonalLoop=1;jettySize=auto;html=1;entryX=0.5;entryY=0;entryDx=0;entryDy=0;" edge="1" parent="1" source="juhhppIBEXEbaZW28vqw-55" target="juhhppIBEXEbaZW28vqw-71">
          <mxGeometry relative="1" as="geometry"/>
        </mxCell>
        <mxCell id="juhhppIBEXEbaZW28vqw-55" value="&lt;span style=&quot;font-weight: 400&quot;&gt;文件生成器&lt;/span&gt;" style="rounded=1;whiteSpace=wrap;html=1;fillColor=#ffe6cc;strokeColor=#d79b00;fontStyle=1" vertex="1" parent="1">
          <mxGeometry x="710" y="2180" width="120" height="60" as="geometry"/>
        </mxCell>
        <mxCell id="juhhppIBEXEbaZW28vqw-59" style="edgeStyle=orthogonalEdgeStyle;rounded=0;orthogonalLoop=1;jettySize=auto;html=1;entryX=0.5;entryY=1;entryDx=0;entryDy=0;" edge="1" parent="1" source="juhhppIBEXEbaZW28vqw-56" target="juhhppIBEXEbaZW28vqw-47">
          <mxGeometry relative="1" as="geometry"/>
        </mxCell>
        <mxCell id="juhhppIBEXEbaZW28vqw-56" value="输入解析" style="rounded=1;whiteSpace=wrap;html=1;fillColor=#dae8fc;strokeColor=#6c8ebf;" vertex="1" parent="1">
          <mxGeometry x="500" y="2050" width="120" height="60" as="geometry"/>
        </mxCell>
        <mxCell id="juhhppIBEXEbaZW28vqw-64" value="数据访问" style="rounded=1;whiteSpace=wrap;html=1;fillColor=#dae8fc;strokeColor=#6c8ebf;" vertex="1" parent="1">
          <mxGeometry x="1110" y="2050" width="120" height="60" as="geometry"/>
        </mxCell>
        <mxCell id="juhhppIBEXEbaZW28vqw-70" style="edgeStyle=orthogonalEdgeStyle;rounded=0;orthogonalLoop=1;jettySize=auto;html=1;entryX=0;entryY=0.5;entryDx=0;entryDy=0;" edge="1" parent="1" source="juhhppIBEXEbaZW28vqw-68" target="juhhppIBEXEbaZW28vqw-48">
          <mxGeometry relative="1" as="geometry"/>
        </mxCell>
        <mxCell id="juhhppIBEXEbaZW28vqw-68" value="数据连接" style="rounded=1;whiteSpace=wrap;html=1;fillColor=#dae8fc;strokeColor=#6c8ebf;" vertex="1" parent="1">
          <mxGeometry x="1110" y="2180" width="120" height="60" as="geometry"/>
        </mxCell>
        <mxCell id="juhhppIBEXEbaZW28vqw-71" value="文件生成" style="rounded=1;whiteSpace=wrap;html=1;fillColor=#dae8fc;strokeColor=#6c8ebf;" vertex="1" parent="1">
          <mxGeometry x="710" y="2308" width="120" height="60" as="geometry"/>
        </mxCell>
        <mxCell id="juhhppIBEXEbaZW28vqw-73" value="文件整合" style="rounded=1;whiteSpace=wrap;html=1;fillColor=#dae8fc;strokeColor=#6c8ebf;" vertex="1" parent="1">
          <mxGeometry x="290" y="2050" width="120" height="60" as="geometry"/>
        </mxCell>
        <mxCell id="juhhppIBEXEbaZW28vqw-78" style="edgeStyle=orthogonalEdgeStyle;rounded=0;orthogonalLoop=1;jettySize=auto;html=1;entryX=0.5;entryY=0;entryDx=0;entryDy=0;" edge="1" parent="1" source="juhhppIBEXEbaZW28vqw-75" target="juhhppIBEXEbaZW28vqw-77">
          <mxGeometry relative="1" as="geometry"/>
        </mxCell>
        <mxCell id="juhhppIBEXEbaZW28vqw-80" style="edgeStyle=orthogonalEdgeStyle;rounded=0;orthogonalLoop=1;jettySize=auto;html=1;entryX=0;entryY=0.5;entryDx=0;entryDy=0;exitX=1;exitY=0.5;exitDx=0;exitDy=0;" edge="1" parent="1" source="juhhppIBEXEbaZW28vqw-75" target="juhhppIBEXEbaZW28vqw-79">
          <mxGeometry relative="1" as="geometry">
            <Array as="points"/>
          </mxGeometry>
        </mxCell>
        <mxCell id="juhhppIBEXEbaZW28vqw-82" style="edgeStyle=orthogonalEdgeStyle;rounded=0;orthogonalLoop=1;jettySize=auto;html=1;entryX=1;entryY=0.5;entryDx=0;entryDy=0;" edge="1" parent="1" source="juhhppIBEXEbaZW28vqw-75" target="juhhppIBEXEbaZW28vqw-81">
          <mxGeometry relative="1" as="geometry"/>
        </mxCell>
        <mxCell id="juhhppIBEXEbaZW28vqw-75" value="&lt;span style=&quot;font-weight: 400&quot;&gt;记录器&lt;/span&gt;" style="rounded=1;whiteSpace=wrap;html=1;fillColor=#ffe6cc;strokeColor=#d79b00;fontStyle=1" vertex="1" parent="1">
          <mxGeometry x="290" y="2308" width="120" height="60" as="geometry"/>
        </mxCell>
        <mxCell id="juhhppIBEXEbaZW28vqw-77" value="创建任务" style="rounded=1;whiteSpace=wrap;html=1;fillColor=#dae8fc;strokeColor=#6c8ebf;" vertex="1" parent="1">
          <mxGeometry x="290" y="2430" width="120" height="60" as="geometry"/>
        </mxCell>
        <mxCell id="juhhppIBEXEbaZW28vqw-79" value="更新任务" style="rounded=1;whiteSpace=wrap;html=1;fillColor=#dae8fc;strokeColor=#6c8ebf;" vertex="1" parent="1">
          <mxGeometry x="500" y="2308" width="120" height="60" as="geometry"/>
        </mxCell>
        <mxCell id="juhhppIBEXEbaZW28vqw-81" value="返回任务信息" style="rounded=1;whiteSpace=wrap;html=1;fillColor=#dae8fc;strokeColor=#6c8ebf;" vertex="1" parent="1">
          <mxGeometry x="90" y="2308" width="120" height="60" as="geometry"/>
        </mxCell>
        <mxCell id="juhhppIBEXEbaZW28vqw-84" value="" style="rounded=0;whiteSpace=wrap;html=1;" vertex="1" parent="1">
          <mxGeometry x="80" y="2590" width="790" height="760" as="geometry"/>
        </mxCell>
        <mxCell id="juhhppIBEXEbaZW28vqw-85" value="" style="rounded=0;whiteSpace=wrap;html=1;" vertex="1" parent="1">
          <mxGeometry x="90" y="2600" width="770" height="140" as="geometry"/>
        </mxCell>
        <mxCell id="juhhppIBEXEbaZW28vqw-86" value="" style="rounded=0;whiteSpace=wrap;html=1;" vertex="1" parent="1">
          <mxGeometry x="90" y="2750" width="170" height="590" as="geometry"/>
        </mxCell>
        <mxCell id="juhhppIBEXEbaZW28vqw-87" value="下载服务" style="rounded=1;whiteSpace=wrap;html=1;" vertex="1" parent="1">
          <mxGeometry x="140" y="2642" width="120" height="60" as="geometry"/>
        </mxCell>
        <mxCell id="juhhppIBEXEbaZW28vqw-88" value="业务" style="text;html=1;resizable=0;points=[];autosize=1;align=left;verticalAlign=top;spacingTop=-4;" vertex="1" parent="1">
          <mxGeometry x="110" y="2770" width="40" height="20" as="geometry"/>
        </mxCell>
        <mxCell id="juhhppIBEXEbaZW28vqw-89" value="&lt;b&gt;业务配置&lt;/b&gt;&lt;br&gt;业务数据配置" style="text;html=1;resizable=0;points=[];autosize=1;align=left;verticalAlign=top;spacingTop=-4;" vertex="1" parent="1">
          <mxGeometry x="140" y="2810" width="90" height="30" as="geometry"/>
        </mxCell>
        <mxCell id="juhhppIBEXEbaZW28vqw-91" value="新增" style="text;html=1;resizable=0;points=[];autosize=1;align=left;verticalAlign=top;spacingTop=-4;" vertex="1" parent="1">
          <mxGeometry x="670" y="2770" width="40" height="20" as="geometry"/>
        </mxCell>
        <mxCell id="juhhppIBEXEbaZW28vqw-92" value="横幅样式" style="rounded=0;whiteSpace=wrap;html=1;" vertex="1" parent="1">
          <mxGeometry x="320" y="2770" width="220" height="20" as="geometry"/>
        </mxCell>
        <mxCell id="juhhppIBEXEbaZW28vqw-93" value="下拉选项" style="rounded=0;whiteSpace=wrap;html=1;" vertex="1" parent="1">
          <mxGeometry x="540" y="2770" width="90" height="20" as="geometry"/>
        </mxCell>
        <mxCell id="juhhppIBEXEbaZW28vqw-94" value="删除" style="text;html=1;resizable=0;points=[];autosize=1;align=left;verticalAlign=top;spacingTop=-4;" vertex="1" parent="1">
          <mxGeometry x="740" y="2770" width="40" height="20" as="geometry"/>
        </mxCell>
        <mxCell id="juhhppIBEXEbaZW28vqw-95" value="&lt;font style=&quot;font-size: 12px&quot;&gt;业务中文名称：横幅样式&lt;br&gt;业务英文名称：banner&lt;br&gt;&lt;br&gt;&lt;/font&gt;&lt;p style=&quot;margin: 10px 0px 0px 30px ; overflow-wrap: break-word ; color: rgb(51 , 51 , 51) ; font-family: &amp;#34;arial&amp;#34; , sans-serif ; white-space: normal&quot;&gt;&lt;font style=&quot;font-size: 12px&quot;&gt;文件配置：&lt;/font&gt;&lt;/p&gt;&lt;p style=&quot;margin: 10px 0px 0px 60px ; overflow-wrap: break-word ; color: rgb(51 , 51 , 51) ; font-family: &amp;#34;arial&amp;#34; , sans-serif ; white-space: normal&quot;&gt;&lt;font style=&quot;font-size: 12px&quot;&gt;文件类型：excel&lt;/font&gt;&lt;/p&gt;&lt;p style=&quot;margin: 10px 0px 0px 60px ; overflow-wrap: break-word ; color: rgb(51 , 51 , 51) ; font-family: &amp;#34;arial&amp;#34; , sans-serif ; white-space: normal&quot;&gt;&lt;font style=&quot;font-size: 12px&quot;&gt;文件名称：filename&lt;/font&gt;&lt;/p&gt;&lt;p style=&quot;margin: 10px 0px 0px 60px ; overflow-wrap: break-word ; color: rgb(51 , 51 , 51) ; font-family: &amp;#34;arial&amp;#34; , sans-serif ; white-space: normal&quot;&gt;&lt;font style=&quot;font-size: 12px&quot;&gt;是否压缩：是|否&lt;/font&gt;&lt;/p&gt;&lt;p style=&quot;margin: 10px 0px 0px 60px ; overflow-wrap: break-word ; color: rgb(51 , 51 , 51) ; font-family: &amp;#34;arial&amp;#34; , sans-serif ; white-space: normal&quot;&gt;&lt;font style=&quot;font-size: 12px&quot;&gt;文件配置：&lt;/font&gt;&lt;/p&gt;&lt;p style=&quot;margin: 10px 0px 0px 90px ; overflow-wrap: break-word ; color: rgb(51 , 51 , 51) ; font-family: &amp;#34;arial&amp;#34; , sans-serif ; white-space: normal&quot;&gt;&lt;font style=&quot;font-size: 12px&quot;&gt;文件类型：sheet&lt;/font&gt;&lt;/p&gt;&lt;p style=&quot;margin: 10px 0px 0px 90px ; overflow-wrap: break-word ; color: rgb(51 , 51 , 51) ; font-family: &amp;#34;arial&amp;#34; , sans-serif ; white-space: normal&quot;&gt;&lt;font style=&quot;font-size: 12px&quot;&gt;文件名称：sheetname&lt;/font&gt;&lt;/p&gt;&lt;p style=&quot;margin: 10px 0px 0px 90px ; overflow-wrap: break-word ; color: rgb(51 , 51 , 51) ; font-family: &amp;#34;arial&amp;#34; , sans-serif ; white-space: normal&quot;&gt;&lt;font style=&quot;font-size: 12px&quot;&gt;物料类型：banner&lt;/font&gt;&lt;/p&gt;&lt;p style=&quot;margin: 10px 0px 0px 90px ; overflow-wrap: break-word ; color: rgb(51 , 51 , 51) ; font-family: &amp;#34;arial&amp;#34; , sans-serif ; white-space: normal&quot;&gt;&lt;font style=&quot;font-size: 12px&quot;&gt;设备类型：mobile&lt;/font&gt;&lt;/p&gt;&lt;p style=&quot;margin: 10px 0px 0px 90px ; overflow-wrap: break-word ; color: rgb(51 , 51 , 51) ; font-family: &amp;#34;arial&amp;#34; , sans-serif ; white-space: normal&quot;&gt;&lt;font style=&quot;font-size: 12px&quot;&gt;文件名称：修改横幅样式&lt;/font&gt;&lt;/p&gt;&lt;p style=&quot;margin: 10px 0px 0px 90px ; overflow-wrap: break-word ; color: rgb(51 , 51 , 51) ; font-family: &amp;#34;arial&amp;#34; , sans-serif ; white-space: normal&quot;&gt;&lt;font style=&quot;font-size: 12px&quot;&gt;下载数据配置：[&lt;/font&gt;&lt;/p&gt;&lt;p style=&quot;margin: 10px 0px 0px 120px ; overflow-wrap: break-word ; color: rgb(51 , 51 , 51) ; font-family: &amp;#34;arial&amp;#34; , sans-serif ; white-space: normal&quot;&gt;&lt;font style=&quot;font-size: 12px&quot;&gt;&lt;span style=&quot;color: rgb(106 , 135 , 89)&quot;&gt;&quot;&lt;/span&gt;&lt;span style=&quot;color: rgb(106 , 135 , 89)&quot;&gt;账户&lt;/span&gt;&lt;span style=&quot;color: rgb(106 , 135 , 89)&quot;&gt;ID&lt;/span&gt;&lt;span style=&quot;color: rgb(106 , 135 , 89)&quot;&gt;（必填）&lt;/span&gt;&lt;span style=&quot;color: rgb(106 , 135 , 89)&quot;&gt;&quot;&lt;/span&gt;&lt;span style=&quot;color: rgb(204 , 120 , 50)&quot;&gt;,&lt;br&gt;&lt;/span&gt;&lt;span style=&quot;color: rgb(106 , 135 , 89)&quot;&gt;&quot;&lt;/span&gt;&lt;span style=&quot;color: rgb(106 , 135 , 89)&quot;&gt;横幅样式加密&lt;/span&gt;&lt;span style=&quot;color: rgb(106 , 135 , 89)&quot;&gt;ID&lt;/span&gt;&lt;span style=&quot;color: rgb(106 , 135 , 89)&quot;&gt;（必填）&lt;/span&gt;&lt;span style=&quot;color: rgb(106 , 135 , 89)&quot;&gt;&quot;&lt;/span&gt;&lt;span style=&quot;color: rgb(204 , 120 , 50)&quot;&gt;,&lt;br&gt;&lt;/span&gt;&lt;span style=&quot;color: rgb(106 , 135 , 89)&quot;&gt;&quot;&lt;/span&gt;&lt;span style=&quot;color: rgb(106 , 135 , 89)&quot;&gt;推广计划名称（选填）&lt;/span&gt;&lt;span style=&quot;color: rgb(106 , 135 , 89)&quot;&gt;&quot;&lt;/span&gt;&lt;span style=&quot;color: rgb(204 , 120 , 50)&quot;&gt;,&lt;br&gt;&lt;/span&gt;&lt;span style=&quot;color: rgb(106 , 135 , 89)&quot;&gt;&quot;&lt;/span&gt;&lt;span style=&quot;color: rgb(106 , 135 , 89)&quot;&gt;当前图片&lt;/span&gt;&lt;span style=&quot;color: rgb(106 , 135 , 89)&quot;&gt;1&lt;/span&gt;&lt;span style=&quot;color: rgb(106 , 135 , 89)&quot;&gt;预览&lt;/span&gt;&lt;span style=&quot;color: rgb(106 , 135 , 89)&quot;&gt;URL&lt;/span&gt;&lt;span style=&quot;color: rgb(106 , 135 , 89)&quot;&gt;（选填）&lt;/span&gt;&lt;span style=&quot;color: rgb(106 , 135 , 89)&quot;&gt;&quot;&lt;/span&gt;&lt;span style=&quot;color: rgb(204 , 120 , 50)&quot;&gt;,&lt;br&gt;&lt;/span&gt;&lt;span style=&quot;color: rgb(106 , 135 , 89)&quot;&gt;&quot;&lt;/span&gt;&lt;span style=&quot;color: rgb(106 , 135 , 89)&quot;&gt;修改后图片&lt;/span&gt;&lt;span style=&quot;color: rgb(106 , 135 , 89)&quot;&gt;1&lt;/span&gt;&lt;span style=&quot;color: rgb(106 , 135 , 89)&quot;&gt;（选填）&lt;/span&gt;&lt;span style=&quot;color: rgb(106 , 135 , 89)&quot;&gt;&quot;&lt;/span&gt;&lt;span style=&quot;color: rgb(204 , 120 , 50)&quot;&gt;,&lt;br&gt;&lt;/span&gt;&lt;span style=&quot;color: rgb(106 , 135 , 89)&quot;&gt;&quot;&lt;/span&gt;&lt;span style=&quot;color: rgb(106 , 135 , 89)&quot;&gt;图片&lt;/span&gt;&lt;span style=&quot;color: rgb(106 , 135 , 89)&quot;&gt;1&lt;/span&gt;&lt;span style=&quot;color: rgb(106 , 135 , 89)&quot;&gt;访问&lt;/span&gt;&lt;span style=&quot;color: rgb(106 , 135 , 89)&quot;&gt;URL&lt;/span&gt;&lt;span style=&quot;color: rgb(106 , 135 , 89)&quot;&gt;（选填）&lt;/span&gt;&lt;span style=&quot;color: rgb(106 , 135 , 89)&quot;&gt;&quot;&lt;/span&gt;&lt;span style=&quot;color: rgb(204 , 120 , 50)&quot;&gt;,&lt;br&gt;&lt;/span&gt;&lt;span style=&quot;color: rgb(106 , 135 , 89)&quot;&gt;&quot;&lt;/span&gt;&lt;span style=&quot;color: rgb(106 , 135 , 89)&quot;&gt;当前图片&lt;/span&gt;&lt;span style=&quot;color: rgb(106 , 135 , 89)&quot;&gt;2&lt;/span&gt;&lt;span style=&quot;color: rgb(106 , 135 , 89)&quot;&gt;预览&lt;/span&gt;&lt;span style=&quot;color: rgb(106 , 135 , 89)&quot;&gt;URL&lt;/span&gt;&lt;span style=&quot;color: rgb(106 , 135 , 89)&quot;&gt;（选填）&lt;/span&gt;&lt;span style=&quot;color: rgb(106 , 135 , 89)&quot;&gt;&quot;&lt;/span&gt;&lt;span style=&quot;color: rgb(204 , 120 , 50)&quot;&gt;,&lt;br&gt;&lt;/span&gt;&lt;span style=&quot;color: rgb(106 , 135 , 89)&quot;&gt;&quot;&lt;/span&gt;&lt;span style=&quot;color: rgb(106 , 135 , 89)&quot;&gt;修改后图片&lt;/span&gt;&lt;span style=&quot;color: rgb(106 , 135 , 89)&quot;&gt;2&lt;/span&gt;&lt;span style=&quot;color: rgb(106 , 135 , 89)&quot;&gt;（选填）&lt;/span&gt;&lt;span style=&quot;color: rgb(106 , 135 , 89)&quot;&gt;&quot;&lt;/span&gt;&lt;span style=&quot;color: rgb(204 , 120 , 50)&quot;&gt;,&lt;br&gt;&lt;/span&gt;&lt;span style=&quot;color: rgb(106 , 135 , 89)&quot;&gt;&quot;&lt;/span&gt;&lt;span style=&quot;color: rgb(106 , 135 , 89)&quot;&gt;图片&lt;/span&gt;&lt;span style=&quot;color: rgb(106 , 135 , 89)&quot;&gt;2&lt;/span&gt;&lt;span style=&quot;color: rgb(106 , 135 , 89)&quot;&gt;访问&lt;/span&gt;&lt;span style=&quot;color: rgb(106 , 135 , 89)&quot;&gt;URL&lt;/span&gt;&lt;span style=&quot;color: rgb(106 , 135 , 89)&quot;&gt;（选填）&lt;/span&gt;&lt;span style=&quot;color: rgb(106 , 135 , 89)&quot;&gt;&quot;&lt;/span&gt;&lt;span style=&quot;color: rgb(204 , 120 , 50)&quot;&gt;,&lt;br&gt;&lt;/span&gt;&lt;span style=&quot;color: rgb(106 , 135 , 89)&quot;&gt;&quot;&lt;/span&gt;&lt;span style=&quot;color: rgb(106 , 135 , 89)&quot;&gt;横幅样式状态&lt;/span&gt;&lt;span style=&quot;color: rgb(106 , 135 , 89)&quot;&gt;&quot;&lt;/span&gt;&lt;span style=&quot;color: rgb(204 , 120 , 50)&quot;&gt;,&lt;br&gt;&lt;/span&gt;&lt;span style=&quot;color: rgb(106 , 135 , 89)&quot;&gt;&quot;&lt;/span&gt;&lt;span style=&quot;color: rgb(106 , 135 , 89)&quot;&gt;审核未通过原因&lt;/span&gt;&lt;span style=&quot;color: rgb(106 , 135 , 89)&quot;&gt;&quot;&lt;/span&gt;&lt;/font&gt;&lt;/p&gt;&lt;p style=&quot;margin: 10px 0px 0px 90px ; overflow-wrap: break-word ; color: rgb(51 , 51 , 51) ; font-family: &amp;#34;arial&amp;#34; , sans-serif ; white-space: normal&quot;&gt;&lt;font style=&quot;font-size: 12px&quot;&gt;]&lt;/font&gt;&lt;/p&gt;" style="rounded=0;whiteSpace=wrap;html=1;align=left;" vertex="1" parent="1">
          <mxGeometry x="320" y="2810" width="540" height="520" as="geometry"/>
        </mxCell>
        <mxCell id="juhhppIBEXEbaZW28vqw-96" value="编辑" style="text;html=1;resizable=0;points=[];autosize=1;align=left;verticalAlign=top;spacingTop=-4;" vertex="1" parent="1">
          <mxGeometry x="810" y="2770" width="40" height="20" as="geometry"/>
        </mxCell>
        <mxCell id="juhhppIBEXEbaZW28vqw-97" value="" style="rounded=0;whiteSpace=wrap;html=1;" vertex="1" parent="1">
          <mxGeometry x="915" y="2590" width="790" height="760" as="geometry"/>
        </mxCell>
        <mxCell id="juhhppIBEXEbaZW28vqw-98" value="" style="rounded=0;whiteSpace=wrap;html=1;" vertex="1" parent="1">
          <mxGeometry x="925" y="2600" width="770" height="140" as="geometry"/>
        </mxCell>
        <mxCell id="juhhppIBEXEbaZW28vqw-99" value="" style="rounded=0;whiteSpace=wrap;html=1;" vertex="1" parent="1">
          <mxGeometry x="925" y="2750" width="170" height="590" as="geometry"/>
        </mxCell>
        <mxCell id="juhhppIBEXEbaZW28vqw-100" value="下载服务" style="rounded=1;whiteSpace=wrap;html=1;" vertex="1" parent="1">
          <mxGeometry x="975" y="2642" width="120" height="60" as="geometry"/>
        </mxCell>
        <mxCell id="juhhppIBEXEbaZW28vqw-101" value="业务" style="text;html=1;resizable=0;points=[];autosize=1;align=left;verticalAlign=top;spacingTop=-4;" vertex="1" parent="1">
          <mxGeometry x="945" y="2770" width="40" height="20" as="geometry"/>
        </mxCell>
        <mxCell id="juhhppIBEXEbaZW28vqw-102" value="业务配置&lt;br&gt;&lt;b&gt;业务数据配置&lt;/b&gt;" style="text;html=1;resizable=0;points=[];autosize=1;align=left;verticalAlign=top;spacingTop=-4;" vertex="1" parent="1">
          <mxGeometry x="975" y="2810" width="90" height="30" as="geometry"/>
        </mxCell>
        <mxCell id="juhhppIBEXEbaZW28vqw-104" value="横幅样式" style="rounded=0;whiteSpace=wrap;html=1;" vertex="1" parent="1">
          <mxGeometry x="1155" y="2770" width="220" height="20" as="geometry"/>
        </mxCell>
        <mxCell id="juhhppIBEXEbaZW28vqw-105" value="下拉选项" style="rounded=0;whiteSpace=wrap;html=1;" vertex="1" parent="1">
          <mxGeometry x="1375" y="2770" width="90" height="20" as="geometry"/>
        </mxCell>
        <mxCell id="juhhppIBEXEbaZW28vqw-107" value="&lt;p style=&quot;margin: 10px 0px 0px 30px ; overflow-wrap: break-word ; color: rgb(51 , 51 , 51) ; font-family: &amp;#34;arial&amp;#34; , sans-serif ; font-size: 14px&quot;&gt;数据中文名称：&lt;span style=&quot;color: rgb(152 , 118 , 170)&quot;&gt;账户&lt;/span&gt;&lt;span style=&quot;color: rgb(152 , 118 , 170)&quot;&gt;ID&lt;/span&gt;&lt;span style=&quot;color: rgb(152 , 118 , 170)&quot;&gt;（必填）&lt;/span&gt;&lt;/p&gt;&lt;p style=&quot;margin: 10px 0px 0px 30px ; overflow-wrap: break-word ; color: rgb(51 , 51 , 51) ; font-family: &amp;#34;arial&amp;#34; , sans-serif ; font-size: 14px&quot;&gt;数据英文名称：&lt;span style=&quot;color: rgb(106 , 135 , 89)&quot;&gt;accountId&lt;/span&gt;&lt;/p&gt;&lt;p style=&quot;margin: 10px 0px 0px 30px ; overflow-wrap: break-word ; color: rgb(51 , 51 , 51) ; font-family: &amp;#34;arial&amp;#34; , sans-serif ; font-size: 14px&quot;&gt;&lt;span style=&quot;color: rgb(106 , 135 , 89)&quot;&gt;数据来源：plan&lt;/span&gt;&lt;/p&gt;" style="rounded=0;whiteSpace=wrap;html=1;align=left;" vertex="1" parent="1">
          <mxGeometry x="1155" y="2870" width="540" height="460" as="geometry"/>
        </mxCell>
        <mxCell id="juhhppIBEXEbaZW28vqw-109" value="新增" style="text;html=1;resizable=0;points=[];autosize=1;align=left;verticalAlign=top;spacingTop=-4;" vertex="1" parent="1">
          <mxGeometry x="1505" y="2810" width="40" height="20" as="geometry"/>
        </mxCell>
        <mxCell id="juhhppIBEXEbaZW28vqw-110" value="&lt;span style=&quot;font-family: &amp;#34;arial&amp;#34; , sans-serif ; font-size: 14px ; text-align: left ; color: rgb(152 , 118 , 170)&quot;&gt;账户&lt;/span&gt;&lt;span style=&quot;font-family: &amp;#34;arial&amp;#34; , sans-serif ; font-size: 14px ; text-align: left ; color: rgb(152 , 118 , 170)&quot;&gt;ID&lt;/span&gt;&lt;span style=&quot;font-family: &amp;#34;arial&amp;#34; , sans-serif ; font-size: 14px ; text-align: left ; color: rgb(152 , 118 , 170)&quot;&gt;（必填）&lt;/span&gt;" style="rounded=0;whiteSpace=wrap;html=1;" vertex="1" parent="1">
          <mxGeometry x="1155" y="2810" width="220" height="20" as="geometry"/>
        </mxCell>
        <mxCell id="juhhppIBEXEbaZW28vqw-111" value="下拉选项" style="rounded=0;whiteSpace=wrap;html=1;" vertex="1" parent="1">
          <mxGeometry x="1375" y="2810" width="90" height="20" as="geometry"/>
        </mxCell>
        <mxCell id="juhhppIBEXEbaZW28vqw-112" value="删除" style="text;html=1;resizable=0;points=[];autosize=1;align=left;verticalAlign=top;spacingTop=-4;" vertex="1" parent="1">
          <mxGeometry x="1575" y="2810" width="40" height="20" as="geometry"/>
        </mxCell>
        <mxCell id="juhhppIBEXEbaZW28vqw-113" value="编辑" style="text;html=1;resizable=0;points=[];autosize=1;align=left;verticalAlign=top;spacingTop=-4;" vertex="1" parent="1">
          <mxGeometry x="1645" y="2810" width="40" height="20" as="geometry"/>
        </mxCell>
        <mxCell id="juhhppIBEXEbaZW28vqw-116" value="下载输入" style="rounded=1;whiteSpace=wrap;html=1;fillColor=#dae8fc;strokeColor=#6c8ebf;direction=east;rotation=0;" vertex="1" parent="1">
          <mxGeometry x="2620" y="1530" width="120" height="60" as="geometry"/>
        </mxCell>
        <mxCell id="juhhppIBEXEbaZW28vqw-117" value="&lt;span style=&quot;font-weight: normal&quot;&gt;业务配置&lt;/span&gt;" style="rounded=1;whiteSpace=wrap;html=1;fillColor=#d5e8d4;strokeColor=#82b366;fontStyle=1;direction=east;rotation=0;" vertex="1" parent="1">
          <mxGeometry x="3041" y="1774" width="120" height="60" as="geometry"/>
        </mxCell>
        <mxCell id="juhhppIBEXEbaZW28vqw-118" value="&lt;span style=&quot;font-weight: normal&quot;&gt;连接数据源配置&lt;/span&gt;" style="rounded=1;whiteSpace=wrap;html=1;fillColor=#d5e8d4;strokeColor=#82b366;fontStyle=1;direction=east;rotation=0;" vertex="1" parent="1">
          <mxGeometry x="2620" y="2750" width="120" height="60" as="geometry"/>
        </mxCell>
        <mxCell id="juhhppIBEXEbaZW28vqw-119" value="&lt;span style=&quot;font-weight: normal&quot;&gt;title数据源配置&lt;/span&gt;" style="rounded=1;whiteSpace=wrap;html=1;fillColor=#d5e8d4;strokeColor=#82b366;fontStyle=1;direction=east;rotation=0;" vertex="1" parent="1">
          <mxGeometry x="2831" y="2057" width="120" height="60" as="geometry"/>
        </mxCell>
        <mxCell id="juhhppIBEXEbaZW28vqw-158" style="edgeStyle=orthogonalEdgeStyle;rounded=0;orthogonalLoop=1;jettySize=auto;html=1;entryX=0.5;entryY=0;entryDx=0;entryDy=0;" edge="1" parent="1" source="juhhppIBEXEbaZW28vqw-124" target="juhhppIBEXEbaZW28vqw-126">
          <mxGeometry relative="1" as="geometry"/>
        </mxCell>
        <mxCell id="juhhppIBEXEbaZW28vqw-176" style="edgeStyle=orthogonalEdgeStyle;rounded=0;orthogonalLoop=1;jettySize=auto;html=1;entryX=0;entryY=0.5;entryDx=0;entryDy=0;" edge="1" parent="1" source="juhhppIBEXEbaZW28vqw-124" target="juhhppIBEXEbaZW28vqw-142">
          <mxGeometry relative="1" as="geometry"/>
        </mxCell>
        <mxCell id="juhhppIBEXEbaZW28vqw-179" style="edgeStyle=orthogonalEdgeStyle;rounded=0;orthogonalLoop=1;jettySize=auto;html=1;entryX=0;entryY=0.5;entryDx=0;entryDy=0;" edge="1" parent="1" source="juhhppIBEXEbaZW28vqw-124" target="juhhppIBEXEbaZW28vqw-146">
          <mxGeometry relative="1" as="geometry">
            <Array as="points">
              <mxPoint x="2770" y="1640"/>
              <mxPoint x="2770" y="1560"/>
            </Array>
          </mxGeometry>
        </mxCell>
        <mxCell id="juhhppIBEXEbaZW28vqw-124" value="异步处理器" style="rounded=1;whiteSpace=wrap;html=1;fillColor=#f8cecc;strokeColor=#b85450;direction=east;rotation=0;" vertex="1" parent="1">
          <mxGeometry x="2620" y="1623" width="120" height="60" as="geometry"/>
        </mxCell>
        <mxCell id="juhhppIBEXEbaZW28vqw-115" style="edgeStyle=orthogonalEdgeStyle;rounded=0;orthogonalLoop=1;jettySize=auto;html=1;entryX=0.5;entryY=0;entryDx=0;entryDy=0;" edge="1" parent="1" source="juhhppIBEXEbaZW28vqw-116" target="juhhppIBEXEbaZW28vqw-124">
          <mxGeometry relative="1" as="geometry">
            <Array as="points"/>
          </mxGeometry>
        </mxCell>
        <mxCell id="juhhppIBEXEbaZW28vqw-159" style="edgeStyle=orthogonalEdgeStyle;rounded=0;orthogonalLoop=1;jettySize=auto;html=1;" edge="1" parent="1" source="juhhppIBEXEbaZW28vqw-126" target="juhhppIBEXEbaZW28vqw-135">
          <mxGeometry relative="1" as="geometry"/>
        </mxCell>
        <mxCell id="juhhppIBEXEbaZW28vqw-162" style="edgeStyle=orthogonalEdgeStyle;rounded=0;orthogonalLoop=1;jettySize=auto;html=1;entryX=0;entryY=0.5;entryDx=0;entryDy=0;" edge="1" parent="1" source="juhhppIBEXEbaZW28vqw-126" target="juhhppIBEXEbaZW28vqw-137">
          <mxGeometry relative="1" as="geometry"/>
        </mxCell>
        <mxCell id="juhhppIBEXEbaZW28vqw-126" value="&lt;span style=&quot;font-weight: 400&quot;&gt;业务处理器&lt;/span&gt;" style="rounded=1;whiteSpace=wrap;html=1;fillColor=#ffe6cc;strokeColor=#d79b00;fontStyle=1;direction=east;rotation=0;" vertex="1" parent="1">
          <mxGeometry x="2621" y="1774" width="120" height="60" as="geometry"/>
        </mxCell>
        <mxCell id="juhhppIBEXEbaZW28vqw-161" style="edgeStyle=orthogonalEdgeStyle;rounded=0;orthogonalLoop=1;jettySize=auto;html=1;" edge="1" parent="1" source="juhhppIBEXEbaZW28vqw-129" target="juhhppIBEXEbaZW28vqw-130">
          <mxGeometry relative="1" as="geometry"/>
        </mxCell>
        <mxCell id="juhhppIBEXEbaZW28vqw-169" style="edgeStyle=orthogonalEdgeStyle;rounded=0;orthogonalLoop=1;jettySize=auto;html=1;" edge="1" parent="1" source="juhhppIBEXEbaZW28vqw-129" target="juhhppIBEXEbaZW28vqw-138">
          <mxGeometry relative="1" as="geometry"/>
        </mxCell>
        <mxCell id="juhhppIBEXEbaZW28vqw-129" value="&lt;span style=&quot;font-weight: 400&quot;&gt;数据访问器&lt;/span&gt;" style="rounded=1;whiteSpace=wrap;html=1;fillColor=#ffe6cc;strokeColor=#d79b00;fontStyle=1;direction=east;rotation=0;" vertex="1" parent="1">
          <mxGeometry x="2621" y="1959" width="120" height="60" as="geometry"/>
        </mxCell>
        <mxCell id="juhhppIBEXEbaZW28vqw-130" value="&lt;span style=&quot;font-weight: 400&quot;&gt;数据转换器&lt;/span&gt;" style="rounded=1;whiteSpace=wrap;html=1;fillColor=#ffe6cc;strokeColor=#d79b00;fontStyle=1;direction=east;rotation=0;" vertex="1" parent="1">
          <mxGeometry x="2621" y="2057" width="120" height="60" as="geometry"/>
        </mxCell>
        <mxCell id="juhhppIBEXEbaZW28vqw-160" style="edgeStyle=orthogonalEdgeStyle;rounded=0;orthogonalLoop=1;jettySize=auto;html=1;entryX=0.5;entryY=0;entryDx=0;entryDy=0;" edge="1" parent="1" source="juhhppIBEXEbaZW28vqw-135" target="juhhppIBEXEbaZW28vqw-129">
          <mxGeometry relative="1" as="geometry"/>
        </mxCell>
        <mxCell id="juhhppIBEXEbaZW28vqw-167" style="edgeStyle=orthogonalEdgeStyle;rounded=0;orthogonalLoop=1;jettySize=auto;html=1;entryX=0;entryY=0.5;entryDx=0;entryDy=0;" edge="1" parent="1" source="juhhppIBEXEbaZW28vqw-135" target="juhhppIBEXEbaZW28vqw-141">
          <mxGeometry relative="1" as="geometry"/>
        </mxCell>
        <mxCell id="juhhppIBEXEbaZW28vqw-135" value="&lt;span style=&quot;font-weight: 400&quot;&gt;文件生成器&lt;/span&gt;" style="rounded=1;whiteSpace=wrap;html=1;fillColor=#ffe6cc;strokeColor=#d79b00;fontStyle=1;direction=east;rotation=0;" vertex="1" parent="1">
          <mxGeometry x="2621" y="1869" width="120" height="60" as="geometry"/>
        </mxCell>
        <mxCell id="juhhppIBEXEbaZW28vqw-165" style="edgeStyle=orthogonalEdgeStyle;rounded=0;orthogonalLoop=1;jettySize=auto;html=1;entryX=0;entryY=0.5;entryDx=0;entryDy=0;" edge="1" parent="1" source="juhhppIBEXEbaZW28vqw-137" target="juhhppIBEXEbaZW28vqw-117">
          <mxGeometry relative="1" as="geometry"/>
        </mxCell>
        <mxCell id="juhhppIBEXEbaZW28vqw-137" value="输入解析" style="rounded=1;whiteSpace=wrap;html=1;fillColor=#dae8fc;strokeColor=#6c8ebf;direction=east;rotation=0;" vertex="1" parent="1">
          <mxGeometry x="2831" y="1774" width="120" height="60" as="geometry"/>
        </mxCell>
        <mxCell id="juhhppIBEXEbaZW28vqw-170" style="edgeStyle=orthogonalEdgeStyle;rounded=0;orthogonalLoop=1;jettySize=auto;html=1;entryX=0;entryY=0.5;entryDx=0;entryDy=0;" edge="1" parent="1" source="juhhppIBEXEbaZW28vqw-138" target="juhhppIBEXEbaZW28vqw-140">
          <mxGeometry relative="1" as="geometry"/>
        </mxCell>
        <mxCell id="juhhppIBEXEbaZW28vqw-171" style="edgeStyle=orthogonalEdgeStyle;rounded=0;orthogonalLoop=1;jettySize=auto;html=1;entryX=0.5;entryY=0;entryDx=0;entryDy=0;" edge="1" parent="1" source="juhhppIBEXEbaZW28vqw-138" target="juhhppIBEXEbaZW28vqw-119">
          <mxGeometry relative="1" as="geometry"/>
        </mxCell>
        <mxCell id="juhhppIBEXEbaZW28vqw-138" value="数据访问" style="rounded=1;whiteSpace=wrap;html=1;fillColor=#dae8fc;strokeColor=#6c8ebf;direction=east;rotation=0;" vertex="1" parent="1">
          <mxGeometry x="2831" y="1959" width="120" height="60" as="geometry"/>
        </mxCell>
        <mxCell id="juhhppIBEXEbaZW28vqw-140" value="数据连接" style="rounded=1;whiteSpace=wrap;html=1;fillColor=#dae8fc;strokeColor=#6c8ebf;direction=east;rotation=0;" vertex="1" parent="1">
          <mxGeometry x="3041" y="1959" width="120" height="60" as="geometry"/>
        </mxCell>
        <mxCell id="juhhppIBEXEbaZW28vqw-141" value="文件生成" style="rounded=1;whiteSpace=wrap;html=1;fillColor=#dae8fc;strokeColor=#6c8ebf;direction=east;rotation=0;" vertex="1" parent="1">
          <mxGeometry x="2831" y="1869" width="120" height="60" as="geometry"/>
        </mxCell>
        <mxCell id="juhhppIBEXEbaZW28vqw-142" value="文件整合" style="rounded=1;whiteSpace=wrap;html=1;fillColor=#dae8fc;strokeColor=#6c8ebf;direction=east;rotation=0;" vertex="1" parent="1">
          <mxGeometry x="2830" y="1623" width="120" height="60" as="geometry"/>
        </mxCell>
        <mxCell id="juhhppIBEXEbaZW28vqw-181" style="edgeStyle=orthogonalEdgeStyle;rounded=0;orthogonalLoop=1;jettySize=auto;html=1;" edge="1" parent="1" source="juhhppIBEXEbaZW28vqw-146" target="juhhppIBEXEbaZW28vqw-149">
          <mxGeometry relative="1" as="geometry"/>
        </mxCell>
        <mxCell id="juhhppIBEXEbaZW28vqw-182" style="edgeStyle=orthogonalEdgeStyle;rounded=0;orthogonalLoop=1;jettySize=auto;html=1;exitX=1;exitY=0.75;exitDx=0;exitDy=0;entryX=0;entryY=0.5;entryDx=0;entryDy=0;" edge="1" parent="1" source="juhhppIBEXEbaZW28vqw-146" target="juhhppIBEXEbaZW28vqw-147">
          <mxGeometry relative="1" as="geometry"/>
        </mxCell>
        <mxCell id="juhhppIBEXEbaZW28vqw-183" style="edgeStyle=orthogonalEdgeStyle;rounded=0;orthogonalLoop=1;jettySize=auto;html=1;exitX=0.75;exitY=1;exitDx=0;exitDy=0;entryX=0;entryY=0.5;entryDx=0;entryDy=0;" edge="1" parent="1" source="juhhppIBEXEbaZW28vqw-146" target="juhhppIBEXEbaZW28vqw-148">
          <mxGeometry relative="1" as="geometry">
            <Array as="points">
              <mxPoint x="2970" y="1590"/>
              <mxPoint x="2970" y="1750"/>
            </Array>
          </mxGeometry>
        </mxCell>
        <mxCell id="juhhppIBEXEbaZW28vqw-146" value="&lt;span style=&quot;font-weight: 400&quot;&gt;记录器&lt;/span&gt;" style="rounded=1;whiteSpace=wrap;html=1;fillColor=#ffe6cc;strokeColor=#d79b00;fontStyle=1;direction=east;rotation=0;" vertex="1" parent="1">
          <mxGeometry x="2830" y="1530" width="120" height="60" as="geometry"/>
        </mxCell>
        <mxCell id="juhhppIBEXEbaZW28vqw-147" value="创建任务" style="rounded=1;whiteSpace=wrap;html=1;fillColor=#dae8fc;strokeColor=#6c8ebf;direction=east;rotation=0;" vertex="1" parent="1">
          <mxGeometry x="3040" y="1623" width="120" height="60" as="geometry"/>
        </mxCell>
        <mxCell id="juhhppIBEXEbaZW28vqw-148" value="更新任务" style="rounded=1;whiteSpace=wrap;html=1;fillColor=#dae8fc;strokeColor=#6c8ebf;direction=east;rotation=0;" vertex="1" parent="1">
          <mxGeometry x="3041" y="1704" width="120" height="60" as="geometry"/>
        </mxCell>
        <mxCell id="juhhppIBEXEbaZW28vqw-149" value="返回任务信息" style="rounded=1;whiteSpace=wrap;html=1;fillColor=#dae8fc;strokeColor=#6c8ebf;direction=east;rotation=0;" vertex="1" parent="1">
          <mxGeometry x="3040" y="1530" width="120" height="60" as="geometry"/>
        </mxCell>
        <mxCell id="juhhppIBEXEbaZW28vqw-154" style="edgeStyle=orthogonalEdgeStyle;rounded=0;orthogonalLoop=1;jettySize=auto;html=1;entryX=0.5;entryY=0;entryDx=0;entryDy=0;" edge="1" parent="1" source="juhhppIBEXEbaZW28vqw-153" target="juhhppIBEXEbaZW28vqw-116">
          <mxGeometry relative="1" as="geometry"/>
        </mxCell>
        <mxCell id="juhhppIBEXEbaZW28vqw-188" style="edgeStyle=orthogonalEdgeStyle;rounded=0;orthogonalLoop=1;jettySize=auto;html=1;" edge="1" parent="1" source="juhhppIBEXEbaZW28vqw-153" target="juhhppIBEXEbaZW28vqw-146">
          <mxGeometry relative="1" as="geometry"/>
        </mxCell>
        <mxCell id="juhhppIBEXEbaZW28vqw-153" value="用户" style="text;html=1;resizable=0;points=[];autosize=1;align=left;verticalAlign=top;spacingTop=-4;" vertex="1" parent="1">
          <mxGeometry x="2765" y="1490" width="40" height="20" as="geometry"/>
        </mxCell>
        <mxCell id="juhhppIBEXEbaZW28vqw-163" value="1" style="text;html=1;resizable=0;points=[];autosize=1;align=left;verticalAlign=top;spacingTop=-4;" vertex="1" parent="1">
          <mxGeometry x="2786" y="1783" width="20" height="20" as="geometry"/>
        </mxCell>
        <mxCell id="juhhppIBEXEbaZW28vqw-164" value="2" style="text;html=1;resizable=0;points=[];autosize=1;align=left;verticalAlign=top;spacingTop=-4;" vertex="1" parent="1">
          <mxGeometry x="2657" y="1844" width="20" height="20" as="geometry"/>
        </mxCell>
        <mxCell id="juhhppIBEXEbaZW28vqw-166" value="1" style="text;html=1;resizable=0;points=[];autosize=1;align=left;verticalAlign=top;spacingTop=-4;" vertex="1" parent="1">
          <mxGeometry x="2689" y="1939" width="20" height="20" as="geometry"/>
        </mxCell>
        <mxCell id="juhhppIBEXEbaZW28vqw-168" value="2" style="text;html=1;resizable=0;points=[];autosize=1;align=left;verticalAlign=top;spacingTop=-4;" vertex="1" parent="1">
          <mxGeometry x="2781" y="1879" width="20" height="20" as="geometry"/>
        </mxCell>
        <mxCell id="juhhppIBEXEbaZW28vqw-172" value="1" style="text;html=1;resizable=0;points=[];autosize=1;align=left;verticalAlign=top;spacingTop=-4;" vertex="1" parent="1">
          <mxGeometry x="2780" y="1966" width="20" height="20" as="geometry"/>
        </mxCell>
        <mxCell id="juhhppIBEXEbaZW28vqw-173" value="2" style="text;html=1;resizable=0;points=[];autosize=1;align=left;verticalAlign=top;spacingTop=-4;" vertex="1" parent="1">
          <mxGeometry x="2703" y="2029" width="20" height="20" as="geometry"/>
        </mxCell>
        <mxCell id="juhhppIBEXEbaZW28vqw-174" value="1" style="text;html=1;resizable=0;points=[];autosize=1;align=left;verticalAlign=top;spacingTop=-4;" vertex="1" parent="1">
          <mxGeometry x="2913" y="2030" width="20" height="20" as="geometry"/>
        </mxCell>
        <mxCell id="juhhppIBEXEbaZW28vqw-175" value="2" style="text;html=1;resizable=0;points=[];autosize=1;align=left;verticalAlign=top;spacingTop=-4;" vertex="1" parent="1">
          <mxGeometry x="3004" y="1969" width="20" height="20" as="geometry"/>
        </mxCell>
        <mxCell id="juhhppIBEXEbaZW28vqw-177" value="1" style="text;html=1;resizable=0;points=[];autosize=1;align=left;verticalAlign=top;spacingTop=-4;" vertex="1" parent="1">
          <mxGeometry x="2664" y="1730" width="20" height="20" as="geometry"/>
        </mxCell>
        <mxCell id="juhhppIBEXEbaZW28vqw-178" value="2" style="text;html=1;resizable=0;points=[];autosize=1;align=left;verticalAlign=top;spacingTop=-4;" vertex="1" parent="1">
          <mxGeometry x="2780" y="1633" width="20" height="20" as="geometry"/>
        </mxCell>
        <mxCell id="juhhppIBEXEbaZW28vqw-180" value="3" style="text;html=1;resizable=0;points=[];autosize=1;align=left;verticalAlign=top;spacingTop=-4;" vertex="1" parent="1">
          <mxGeometry x="2791" y="1573" width="20" height="20" as="geometry"/>
        </mxCell>
        <mxCell id="juhhppIBEXEbaZW28vqw-184" value="1" style="text;html=1;resizable=0;points=[];autosize=1;align=left;verticalAlign=top;spacingTop=-4;" vertex="1" parent="1">
          <mxGeometry x="3015" y="1610" width="20" height="20" as="geometry"/>
        </mxCell>
        <mxCell id="juhhppIBEXEbaZW28vqw-185" value="2" style="text;html=1;resizable=0;points=[];autosize=1;align=left;verticalAlign=top;spacingTop=-4;" vertex="1" parent="1">
          <mxGeometry x="2997" y="1710" width="20" height="20" as="geometry"/>
        </mxCell>
        <mxCell id="juhhppIBEXEbaZW28vqw-186" value="3" style="text;html=1;resizable=0;points=[];autosize=1;align=left;verticalAlign=top;spacingTop=-4;" vertex="1" parent="1">
          <mxGeometry x="3003" y="1536" width="20" height="20" as="geometry"/>
        </mxCell>
        <mxCell id="juhhppIBEXEbaZW28vqw-187" value="&lt;font style=&quot;font-size: 18px&quot;&gt;输入参数：&lt;br&gt;&lt;/font&gt;&lt;div style=&quot;font-size: 18px&quot;&gt;&lt;font style=&quot;font-size: 18px&quot;&gt;* 用户id集合&lt;/font&gt;&lt;/div&gt;&lt;div style=&quot;font-size: 18px&quot;&gt;&lt;font style=&quot;font-size: 18px&quot;&gt;* 业务名称集合&lt;/font&gt;&lt;/div&gt;&lt;div style=&quot;font-size: 18px&quot;&gt;&lt;font style=&quot;font-size: 18px&quot;&gt;* 平台,对应adtype&lt;/font&gt;&lt;/div&gt;&lt;div style=&quot;font-size: 18px&quot;&gt;&lt;font style=&quot;font-size: 18px&quot;&gt;* 数据下载层级&lt;/font&gt;&lt;/div&gt;&lt;div style=&quot;font-size: 18px&quot;&gt;&lt;font style=&quot;font-size: 18px&quot;&gt;* 目标id集合&lt;/font&gt;&lt;/div&gt;&lt;div style=&quot;font-size: 18px&quot;&gt;&lt;font style=&quot;font-size: 18px&quot;&gt;* 状态条件&lt;/font&gt;&lt;/div&gt;&lt;div style=&quot;font-size: 18px&quot;&gt;&lt;font style=&quot;font-size: 18px&quot;&gt;* 其他参数&lt;/font&gt;&lt;/div&gt;&lt;div style=&quot;font-size: 18px&quot;&gt;&lt;font style=&quot;font-size: 18px&quot;&gt;* 提交任务用户id&lt;/font&gt;&lt;/div&gt;&lt;div style=&quot;font-size: 18px&quot;&gt;&lt;font style=&quot;font-size: 18px&quot;&gt;* 提交任务用户名称&lt;/font&gt;&lt;/div&gt;&lt;div style=&quot;font-size: 18px&quot;&gt;&lt;font style=&quot;font-size: 18px&quot;&gt;* batchjob styletype,业务分类查询用&lt;/font&gt;&lt;/div&gt;&lt;div style=&quot;font-size: 18px&quot;&gt;&lt;font style=&quot;font-size: 18px&quot;&gt;&amp;nbsp;&amp;nbsp;&lt;/font&gt;&lt;/div&gt;" style="text;html=1;resizable=0;points=[];autosize=1;align=left;verticalAlign=top;spacingTop=-4;" vertex="1" parent="1">
          <mxGeometry x="2270" y="1488" width="300" height="170" as="geometry"/>
        </mxCell>
      </root>
    </mxGraphModel>
  </diagram>
</mxfile>
